<mxfile host="app.diagrams.net" modified="2022-02-19T03:50:54.838Z" agent="5.0 (Macintosh; Intel Mac OS X 10_15_7) AppleWebKit/537.36 (KHTML, like Gecko) Chrome/98.0.4758.80 Safari/537.36" etag="Il_m20AtnT5IOcG9-P0l" version="16.6.1" type="github">
  <diagram id="jMUCffKsJ7CRJ28KtjYn" name="Page-1">
    <mxGraphModel dx="1426" dy="794" grid="1" gridSize="10" guides="1" tooltips="1" connect="1" arrows="1" fold="1" page="1" pageScale="1" pageWidth="1654" pageHeight="2336" math="0" shadow="0">
      <root>
        <mxCell id="0" />
        <mxCell id="1" parent="0" />
        <mxCell id="o8Iqj-5iZBnQBGtUt5R7-1" value="&lt;font color=&quot;#ffffff&quot; style=&quot;font-size: 14px&quot; face=&quot;Verdana&quot;&gt;基本算法&lt;/font&gt;" style="rounded=1;whiteSpace=wrap;html=1;fillColor=#0050ef;fontColor=#ffffff;strokeColor=#001DBC;" vertex="1" parent="1">
          <mxGeometry x="210" y="80" width="120" height="30" as="geometry" />
        </mxCell>
        <mxCell id="o8Iqj-5iZBnQBGtUt5R7-2" value="&lt;font color=&quot;#ffffff&quot; style=&quot;font-size: 14px&quot; face=&quot;Verdana&quot;&gt;数据结构&lt;/font&gt;" style="rounded=1;whiteSpace=wrap;html=1;fillColor=#d80073;fontColor=#ffffff;strokeColor=#A50040;" vertex="1" parent="1">
          <mxGeometry x="210" y="120" width="120" height="30" as="geometry" />
        </mxCell>
        <mxCell id="o8Iqj-5iZBnQBGtUt5R7-3" value="&lt;font color=&quot;#ffffff&quot; style=&quot;font-size: 14px&quot; face=&quot;Verdana&quot;&gt;数据库基础&lt;/font&gt;" style="rounded=1;whiteSpace=wrap;html=1;fillColor=#0050ef;fontColor=#ffffff;strokeColor=#001DBC;" vertex="1" parent="1">
          <mxGeometry x="390" y="80" width="120" height="30" as="geometry" />
        </mxCell>
        <mxCell id="o8Iqj-5iZBnQBGtUt5R7-4" value="&lt;font color=&quot;#ffffff&quot; style=&quot;font-size: 14px&quot; face=&quot;Verdana&quot;&gt;操作系统&lt;/font&gt;" style="rounded=1;whiteSpace=wrap;html=1;fillColor=#0050ef;fontColor=#ffffff;strokeColor=#001DBC;" vertex="1" parent="1">
          <mxGeometry x="390" y="120" width="120" height="30" as="geometry" />
        </mxCell>
        <mxCell id="o8Iqj-5iZBnQBGtUt5R7-5" value="&lt;font color=&quot;#ffffff&quot; style=&quot;font-size: 14px&quot; face=&quot;Verdana&quot;&gt;网络基础&lt;/font&gt;" style="rounded=1;whiteSpace=wrap;html=1;fillColor=#0050ef;fontColor=#ffffff;strokeColor=#001DBC;" vertex="1" parent="1">
          <mxGeometry x="390" y="160" width="120" height="30" as="geometry" />
        </mxCell>
      </root>
    </mxGraphModel>
  </diagram>
</mxfile>
